<mxfile host="app.diagrams.net" modified="2024-02-27T04:15:55.059Z" agent="Mozilla/5.0 (Macintosh; Intel Mac OS X 10_15_7) AppleWebKit/537.36 (KHTML, like Gecko) Chrome/120.0.0.0 Safari/537.36" version="22.1.21" etag="9077CojKpq0bxPto9LeP" type="github">
  <diagram name="第 1 页" id="ICB7nvsSRyh_RITRN5Gz">
    <mxGraphModel>
      <root>
        <mxCell id="0" />
        <mxCell id="1" parent="0" />
      </root>
    </mxGraphModel>
  </diagram>
</mxfile>
